<svg width="32" height="32" viewBox="0 0 32 32" fill="none" xmlns="http://www.w3.org/2000/svg">
<g clip-path="url(#clip0_482_19173)">
<path d="M17.109 31.1113L17.0649 22.9936L19.8865 22.9775L17.9313 25.5446L23.6099 25.5153L23.6392 30.8364L24.5734 30.832L24.544 25.5095L30.2182 25.4787L26.4712 21.1006L28.5396 21.0889L25.084 17.0491L27.2245 17.0389L24.3837 13.7198L25.6989 13.7139L23.5173 11.1616L21.5871 13.6992L17.9343 9.43147L21.362 9.41084L16.8118 4.0956L18.92 4.08235L15.4187 0L12.2822 4.1221L14.4169 4.11186L10.3301 9.47257L13.6975 9.45646L9.3709 15.1424L8.23513 13.8141L9.54888 13.8067L7.36722 11.2542L5.40766 13.8287L6.74053 13.8213L4.19404 17.1711L6.29634 17.1593L3.19799 21.2283L5.14717 21.2194L1.78125 25.6357L7.45982 25.6049L7.48919 30.9245L8.42485 30.9215L8.39549 25.6003L14.0667 25.5695L11.8894 23.0245L15.5687 23.0039L15.6128 31.1231L6.67413 31.1702L6.68 31.9999L26.0504 31.894L26.0474 31.0657C26.0431 31.0672 17.109 31.1113 17.109 31.1113ZM21.1444 17.0753L22.4464 17.0695L21.8315 17.8786L21.1444 17.0753ZM22.8906 13.7374L22.2919 14.526L21.6226 13.7448C21.621 13.7433 22.8906 13.7374 22.8906 13.7374ZM21.2326 15.9191L20.725 16.587L20.1586 15.9265L21.2326 15.9191ZM11.8542 15.9691L11.0186 17.0679L10.0873 15.9808L11.8542 15.9691ZM8.93695 17.1444L10.9686 17.1297L10.0065 18.3934L8.93695 17.1444Z" fill="#B2B7C6"/>
</g>
<defs>
<clipPath id="clip0_482_19173">
<rect width="32" height="32" fill="white"/>
</clipPath>
</defs>
</svg>
