<svg width="240" height="29" viewBox="0 0 240 29" fill="none" xmlns="http://www.w3.org/2000/svg">
<g clip-path="url(#clip0_2072_2925)">
<path d="M61.3035 3.49929L65.3181 10.249H65.4784L69.5063 3.49929H74.2696L68.1814 13.4113L74.417 23.2966H69.5462L65.4784 16.547H65.3181L61.2235 23.2966H56.4062L62.6419 13.4113L56.5134 3.49929H61.3035Z" fill="white"/>
<path d="M79.8984 17.8623L85.2775 8.44205H89.3725V23.2966H85.425V13.8629L80.0594 23.2966H75.9512V8.44205H79.8984V17.8623Z" fill="white"/>
<path d="M105.71 23.2966V8.44205H109.603V23.2966H105.71ZM100.625 18.7526L104.666 8.44205H107.837L102.016 23.2966H99.2597L93.5592 8.44205H96.7038L100.625 18.7526ZM95.7542 8.44205V23.2966H91.8066V8.44205H95.7542Z" fill="white"/>
<path d="M116.803 6.95389V3.49929H133.181V6.95389H127.079V23.2966H122.918V6.95389H116.803Z" fill="white"/>
<path d="M140.553 20.2684C141.231 20.2684 141.802 20.0824 142.266 19.7106C142.729 19.3385 143.082 18.8225 143.323 18.1626C143.564 17.5026 143.684 16.7432 143.684 15.8841C143.684 15.025 143.566 14.2697 143.329 13.6186C143.093 12.9676 142.743 12.4558 142.279 12.0838C141.815 11.7117 141.24 11.5257 140.553 11.5257C139.884 11.5257 139.315 11.7052 138.847 12.0641C138.379 12.4227 138.022 12.9275 137.776 13.5785C137.531 14.2296 137.408 14.9983 137.408 15.8841C137.408 16.7609 137.533 17.527 137.783 18.1823C138.033 18.838 138.392 19.3497 138.86 19.7171C139.329 20.085 139.893 20.2684 140.553 20.2684ZM133.367 28.8518V8.44331H137.435V10.9545H137.622C137.81 10.5474 138.078 10.1352 138.425 9.71875C138.773 9.30268 139.228 8.95496 139.79 8.676C140.352 8.3969 141.048 8.25727 141.877 8.25727C142.975 8.25727 143.98 8.53862 144.895 9.10089C145.809 9.66352 146.543 10.5119 147.096 11.6453C147.649 12.7792 147.926 14.1964 147.926 15.8972C147.926 17.5447 147.658 18.938 147.123 20.0758C146.588 21.2142 145.863 22.0756 144.948 22.6603C144.034 23.2447 143.006 23.5372 141.864 23.5372C141.061 23.5372 140.379 23.404 139.817 23.1384C139.255 22.8726 138.798 22.5383 138.445 22.1354C138.093 21.7322 137.819 21.3273 137.622 20.9197H137.502V28.8518H133.367Z" fill="white"/>
<path d="M156.563 23.5886C155.029 23.5886 153.704 23.2788 152.589 22.6589C151.474 22.0387 150.62 21.1552 150.026 20.008C149.433 18.861 149.137 17.5036 149.137 15.9355C149.137 14.4123 149.433 13.0747 150.026 11.923C150.62 10.7717 151.458 9.87247 152.542 9.2257C153.626 8.5793 154.899 8.25588 156.362 8.25588C157.352 8.25588 158.276 8.41325 159.132 8.72744C159.989 9.04205 160.738 9.51136 161.38 10.1361C162.023 10.7605 162.522 11.5444 162.879 12.4877C163.236 13.4312 163.414 14.5361 163.414 15.8027V16.9189H150.782V14.381H161.407L159.48 15.0453C159.48 14.2926 159.364 13.6369 159.132 13.0789C158.9 12.5208 158.555 12.0894 158.095 11.7837C157.636 11.4781 157.067 11.3252 156.389 11.3252C155.711 11.3252 155.138 11.4803 154.67 11.7903C154.201 12.1005 153.842 12.5208 153.592 13.0523C153.343 13.5841 153.218 14.195 153.218 14.8858V16.6796C153.218 17.4859 153.36 18.1743 153.646 18.746C153.931 19.3171 154.33 19.7556 154.844 20.0612C155.356 20.3669 155.948 20.5196 156.617 20.5196C157.08 20.5196 157.5 20.453 157.874 20.3202C158.249 20.1874 158.572 19.9929 158.845 19.7359C159.117 19.4788 159.32 19.1689 159.453 18.8058L163.28 19.0582C163.093 19.9705 162.702 20.7655 162.109 21.4429C161.516 22.1206 160.751 22.6477 159.815 23.024C158.878 23.4004 157.794 23.5886 156.563 23.5886Z" fill="white"/>
<path d="M171.862 6.78127C170.426 6.78127 169.262 6.40922 168.37 5.66516C167.478 4.92109 167.032 3.95127 167.032 2.75523H169.909C169.909 3.30474 170.083 3.74093 170.43 4.06395C170.778 4.38733 171.256 4.54904 171.862 4.54904C172.451 4.54904 172.919 4.38733 173.268 4.06395C173.615 3.74093 173.789 3.30474 173.789 2.75523H176.68C176.68 3.95127 176.236 4.92109 175.348 5.66516C174.46 6.40922 173.298 6.78127 171.862 6.78127ZM169.119 17.8623L174.498 8.44205H178.593V23.2966H174.646V13.8629L169.28 23.2966H165.172V8.44205H169.119V17.8623Z" fill="white"/>
<path d="M185.129 20.0426H190.763V11.6188H186.735L186.575 13.3196C186.467 14.9054 186.311 16.2492 186.106 17.3522C185.901 18.4549 185.575 19.3518 185.129 20.0426ZM179.844 27.6428V20.0426H180.994C181.316 19.83 181.583 19.5003 181.797 19.0527C182.012 18.6057 182.183 18.0743 182.313 17.4584C182.442 16.8428 182.544 16.1809 182.62 15.472C182.696 14.7634 182.761 14.0459 182.814 13.3196L183.216 8.44339H194.67V20.0426H196.998V27.6428H193.038V23.298H183.898V27.6428H179.844Z" fill="white"/>
<path d="M202.473 17.8623L207.852 8.44205H211.946V23.2966H207.999V13.8629L202.633 23.2966H198.525V8.44205H202.473V17.8623Z" fill="white"/>
<path d="M227.352 8.44205V23.2966H223.432V8.44205H227.352ZM224.757 14.2349V17.4505H216.956V14.2349H224.757ZM218.32 8.44205V23.2966H214.373V8.44205H218.32Z" fill="white"/>
<path d="M239.997 8.44205V11.6839H233.788V23.2966H229.787V8.44205H239.997Z" fill="white"/>
<path d="M9.4101 14.4792C9.4101 14.1246 9.44796 13.7772 9.51893 13.4413H0.037865C0.0117831 13.7911 0 14.1434 0 14.5004C0 14.8549 0.0117831 15.2072 0.037865 15.5547H9.52608C9.45033 15.2072 9.4101 14.8479 9.4101 14.4792Z" fill="white"/>
<path d="M9.98971 16.8007H0.189453C0.305298 17.5262 0.475557 18.2307 0.695466 18.9141H12.1111C11.2054 18.4421 10.4628 17.7024 9.98971 16.8007Z" fill="white"/>
<path d="M12.0425 10.0769H0.697848C0.475557 10.7603 0.305299 11.4648 0.189453 12.1904H9.97314C10.4319 11.2957 11.1579 10.5583 12.0425 10.0769Z" fill="white"/>
<path d="M18.9433 16.8007C18.4703 17.7 17.7301 18.4397 16.8242 18.9141H28.5165L29.7037 17.7352H38.007L38.4802 17.2656H46.6226C46.6535 17.1107 46.6816 16.9533 46.7053 16.7959L18.9433 16.8007Z" fill="white"/>
<path d="M10.3235 20.1564C10.3243 20.1585 10.3252 20.1604 10.3261 20.1625H1.1582C1.47476 20.9013 1.84957 21.6072 2.27985 22.2771H26.9248L28.1148 21.0957H36.7778L37.2506 20.6261H45.5256C45.5967 20.4709 45.6676 20.316 45.736 20.1564H10.3235Z" fill="white"/>
<path d="M3.17969 23.5274C3.79692 24.3 4.4945 25.0091 5.25605 25.6409H23.9533C24.3978 25.2733 24.816 24.8767 25.2131 24.4596H34.3853C34.5324 24.3063 34.6751 24.1497 34.8141 23.99H43.327C43.4619 23.8373 43.592 23.68 43.7195 23.5203L3.17969 23.5274Z" fill="white"/>
<path d="M6.99805 26.8866C9.21153 28.2274 11.813 29 14.5942 29C16.6401 29 18.5867 28.5806 20.3545 27.8259H29.5478C29.887 27.6791 30.2193 27.5196 30.5452 27.3492H39.0476C39.3317 27.2036 39.6082 27.0462 39.8801 26.8795L6.99805 26.8866Z" fill="white"/>
<path d="M16.8828 10.0779C17.7696 10.5593 18.4934 11.2967 18.9545 12.1914H29.0149L30.2046 11.0102H37.9403L38.4131 10.5405H46.3288C46.2861 10.3832 46.2367 10.2259 46.1868 10.0708L16.8828 10.0779Z" fill="white"/>
<path d="M23.3456 0.949204H28.9766L29.4583 0.470806H35.9343C34.766 0.172493 33.5433 0.012903 32.2804 0.012903C30.6281 0.012903 14.7916 -0.00193787 14.6 -0.00193787C11.8237 -0.00193787 9.22691 0.768312 7.01562 2.10449H22.1821L23.3456 0.949204Z" fill="white"/>
<path d="M27.2148 4.28644H34.1346L34.6074 3.81686H42.1564C41.9815 3.65488 41.8016 3.49976 41.6172 3.34714L5.26095 3.35424C4.49703 3.9859 3.79945 4.69514 3.17969 5.46777H26.0252L27.2148 4.28644Z" fill="white"/>
<path d="M29.2277 7.64834H36.6418L37.1149 7.17876H44.8883C44.7961 7.01903 44.6992 6.86402 44.5999 6.70904L2.28157 6.71375C1.85116 7.3829 1.47503 8.08978 1.1582 8.82715H28.0406L29.2277 7.64834Z" fill="white"/>
</g>
<defs>
<clipPath id="clip0_2072_2925">
<rect width="240" height="29" fill="white"/>
</clipPath>
</defs>
</svg>
