<svg width="240" height="28" viewBox="0 0 240 28" fill="none" xmlns="http://www.w3.org/2000/svg">
<g clip-path="url(#clip0_2016_2999)">
<path d="M61.2956 3.37947L65.3103 9.89641H65.4706L69.4984 3.37947H74.2618L68.1736 12.9497L74.4092 22.4941H69.5384L65.4706 15.9772H65.3103L61.2157 22.4941H56.3984L62.6341 12.9497L56.5055 3.37947H61.2956Z" fill="#4A4E5A"/>
<path d="M79.9003 17.2472L85.2795 8.15178H89.3744V22.4941H85.4269V13.3857L80.0613 22.4941H75.9531V8.15178H79.9003V17.2472Z" fill="#4A4E5A"/>
<path d="M105.708 22.4941V8.15178H109.601V22.4941H105.708ZM100.623 18.1068L104.664 8.15178H107.835L102.014 22.4941H99.2578L93.5573 8.15178H96.7019L100.623 18.1068ZM95.7522 8.15178V22.4941H91.8047V8.15178H95.7522Z" fill="#4A4E5A"/>
<path d="M116.805 6.71494V3.37947H133.183V6.71494H127.081V22.4941H122.92V6.71494H116.805Z" fill="#4A4E5A"/>
<path d="M140.553 19.569C141.231 19.569 141.802 19.3894 142.266 19.0304C142.729 18.6712 143.082 18.173 143.323 17.5358C143.564 16.8986 143.684 16.1654 143.684 15.3359C143.684 14.5064 143.566 13.7772 143.329 13.1485C143.093 12.5199 142.743 12.0258 142.279 11.6666C141.815 11.3074 141.24 11.1278 140.553 11.1278C139.884 11.1278 139.315 11.3011 138.847 11.6476C138.379 11.9938 138.022 12.4812 137.776 13.1098C137.531 13.7385 137.408 14.4806 137.408 15.3359C137.408 16.1825 137.533 16.9221 137.783 17.5548C138.033 18.188 138.392 18.682 138.86 19.0368C139.329 19.3919 139.893 19.569 140.553 19.569ZM133.367 27.8564V8.1517H137.435V10.5763H137.622C137.81 10.1832 138.078 9.78526 138.425 9.38315C138.773 8.98143 139.228 8.6457 139.79 8.37636C140.352 8.10689 141.048 7.97207 141.877 7.97207C142.975 7.97207 143.98 8.24372 144.895 8.78659C145.809 9.32983 146.543 10.1489 147.096 11.2433C147.649 12.3381 147.926 13.7064 147.926 15.3486C147.926 16.9392 147.658 18.2845 147.123 19.383C146.588 20.4822 145.863 21.3139 144.948 21.8785C144.034 22.4426 143.006 22.7251 141.864 22.7251C141.061 22.7251 140.379 22.5965 139.817 22.3401C139.255 22.0835 138.798 21.7607 138.445 21.3716C138.093 20.9823 137.819 20.5914 137.622 20.1979H137.502V27.8564H133.367Z" fill="#4A4E5A"/>
<path d="M156.559 22.7765C155.025 22.7765 153.7 22.4773 152.585 21.8788C151.47 21.28 150.616 20.427 150.023 19.3193C149.429 18.2119 149.133 16.9013 149.133 15.3873C149.133 13.9166 149.429 12.6251 150.023 11.5132C150.616 10.4015 151.454 9.53331 152.538 8.90884C153.622 8.28473 154.895 7.97246 156.358 7.97246C157.348 7.97246 158.272 8.1244 159.128 8.42777C159.985 8.73152 160.734 9.18465 161.376 9.78783C162.019 10.3907 162.518 11.1476 162.875 12.0583C163.232 12.9693 163.41 14.0361 163.41 15.2591V16.3367H150.778V13.8864H161.403L159.476 14.5277C159.476 13.8011 159.36 13.1679 159.128 12.6291C158.896 12.0903 158.551 11.6737 158.091 11.3786C157.632 11.0835 157.063 10.9359 156.385 10.9359C155.707 10.9359 155.134 11.0857 154.666 11.385C154.197 11.6845 153.838 12.0903 153.588 12.6035C153.339 13.1169 153.214 13.7068 153.214 14.3738V16.1057C153.214 16.8842 153.357 17.5489 153.642 18.1008C153.927 18.6523 154.327 19.0756 154.84 19.3707C155.353 19.6658 155.944 19.8133 156.613 19.8133C157.076 19.8133 157.496 19.749 157.87 19.6208C158.245 19.4926 158.568 19.3047 158.841 19.0566C159.113 18.8084 159.316 18.5091 159.449 18.1586L163.276 18.4023C163.089 19.2831 162.699 20.0507 162.105 20.7047C161.512 21.3591 160.747 21.8681 159.811 22.2313C158.874 22.5947 157.79 22.7765 156.559 22.7765Z" fill="#4A4E5A"/>
<path d="M171.862 6.54827C170.426 6.54827 169.262 6.18906 168.37 5.47065C167.478 4.75224 167.032 3.81586 167.032 2.66106H169.909C169.909 3.19162 170.083 3.61278 170.43 3.92465C170.778 4.23689 171.256 4.39302 171.862 4.39302C172.451 4.39302 172.919 4.23689 173.268 3.92465C173.615 3.61278 173.789 3.19162 173.789 2.66106H176.68C176.68 3.81586 176.236 4.75224 175.348 5.47065C174.46 6.18906 173.298 6.54827 171.862 6.54827ZM169.119 17.2472L174.498 8.15178H178.593V22.4941H174.646V13.3857L169.28 22.4941H165.172V8.15178H169.119V17.2472Z" fill="#4A4E5A"/>
<path d="M185.129 19.3513H190.763V11.218H186.735L186.575 12.8601C186.467 14.3913 186.311 15.6887 186.106 16.7537C185.901 17.8184 185.575 18.6843 185.129 19.3513ZM179.844 26.6895V19.3513H180.994C181.316 19.1461 181.583 18.8277 181.797 18.3955C182.012 17.964 182.183 17.4509 182.313 16.8562C182.442 16.2618 182.544 15.6227 182.62 14.9383C182.696 14.2542 182.761 13.5614 182.814 12.8601L183.216 8.15207H194.67V19.3513H196.998V26.6895H193.038V22.4944H183.898V26.6895H179.844Z" fill="#4A4E5A"/>
<path d="M202.471 17.2472L207.85 8.15178H211.944V22.4941H207.997V13.3857L202.631 22.4941H198.523V8.15178H202.471V17.2472Z" fill="#4A4E5A"/>
<path d="M227.354 8.15178V22.4941H223.434V8.15178H227.354ZM224.759 13.7449V16.8496H216.958V13.7449H224.759ZM218.322 8.15178V22.4941H214.375V8.15178H218.322Z" fill="#4A4E5A"/>
<path d="M239.999 8.15178V11.2819H233.79V22.4941H229.789V8.15178H239.999Z" fill="#4A4E5A"/>
<path d="M9.4101 13.9792C9.4101 13.6368 9.44796 13.3014 9.51893 12.9771H0.037865C0.0117831 13.3148 0 13.655 0 13.9996C0 14.3419 0.0117831 14.6821 0.037865 15.0176H9.52608C9.45033 14.6821 9.4101 14.3352 9.4101 13.9792Z" fill="#274AA5"/>
<path d="M9.98776 16.2214H0.1875C0.303345 16.9219 0.473604 17.6021 0.693512 18.2619H12.1091C11.2034 17.8062 10.4608 17.092 9.98776 16.2214Z" fill="#274AA5"/>
<path d="M12.0405 9.72992H0.695895C0.473604 10.3897 0.303345 11.0699 0.1875 11.7706H9.97119C10.43 10.9067 11.156 10.1947 12.0405 9.72992Z" fill="#274AA5"/>
<path d="M18.9394 16.2214C18.4664 17.0897 17.7262 17.8039 16.8203 18.2619H28.5126L29.6998 17.1237H38.0031L38.4763 16.6703H46.6187C46.6496 16.5207 46.6777 16.3687 46.7014 16.2168L18.9394 16.2214Z" fill="#274AA5"/>
<path d="M10.3215 19.4613C10.3223 19.4634 10.3233 19.4653 10.3242 19.4673H1.15625C1.47281 20.1806 1.84762 20.8621 2.2779 21.5089H26.9229L28.1129 20.3682H36.7758L37.2486 19.9149H45.5236C45.5948 19.7651 45.6656 19.6154 45.7341 19.4613H10.3215Z" fill="#274AA5"/>
<path d="M3.17188 22.7152C3.7891 23.4612 4.48669 24.1458 5.24823 24.7559H23.9455C24.39 24.401 24.8082 24.018 25.2053 23.6153H34.3775C34.5246 23.4673 34.6673 23.3161 34.8063 23.1619H43.3192C43.4541 23.0145 43.5842 22.8626 43.7116 22.7084L3.17188 22.7152Z" fill="#274AA5"/>
<path d="M7 25.9595C9.21349 27.254 11.8149 28 14.5961 28C16.642 28 18.5886 27.5951 20.3565 26.8664H29.5497C29.8889 26.7246 30.2212 26.5706 30.5472 26.4061H39.0496C39.3336 26.2655 39.6102 26.1136 39.882 25.9526L7 25.9595Z" fill="#274AA5"/>
<path d="M16.8828 9.72992C17.7696 10.1947 18.4934 10.9067 18.9545 11.7706H29.0149L30.2046 10.6301H37.9403L38.4131 10.1766H46.3288C46.2861 10.0247 46.2367 9.87286 46.1868 9.72306L16.8828 9.72992Z" fill="#274AA5"/>
<path d="M23.3456 0.916989H28.9766L29.4583 0.455087H35.9343C34.766 0.167061 33.5433 0.0129747 32.2804 0.0129747C30.6281 0.0129747 14.7916 -0.00135446 14.6 -0.00135446C11.8237 -0.00135446 9.22691 0.742335 7.01562 2.03244H22.1821L23.3456 0.916989Z" fill="#274AA5"/>
<path d="M27.2148 4.13868H34.1346L34.6074 3.68529H42.1564C41.9815 3.5289 41.8016 3.37913 41.6172 3.23177L5.26095 3.23863C4.49703 3.84851 3.79945 4.53329 3.17969 5.27928H26.0252L27.2148 4.13868Z" fill="#274AA5"/>
<path d="M29.2258 7.38527H36.6398L37.113 6.93189H44.8864C44.7942 6.77767 44.6972 6.628 44.5979 6.47837L2.27962 6.48292C1.8492 7.12899 1.47307 7.8115 1.15625 8.52344H28.0386L29.2258 7.38527Z" fill="#274AA5"/>
</g>
<defs>
<clipPath id="clip0_2016_2999">
<rect width="240" height="28" fill="white"/>
</clipPath>
</defs>
</svg>
