<svg xmlns="http://www.w3.org/2000/svg" viewBox="0 0 64 64" role="img" aria-label="Parcel MPA">
  <defs>
    <linearGradient id="g" x1="0%" y1="0%" x2="100%" y2="100%">
      <stop offset="0%" stop-color="#2563eb" />
      <stop offset="100%" stop-color="#7c3aed" />
    </linearGradient>
  </defs>
  <rect x="4" y="4" width="56" height="56" rx="16" fill="url(#g)" />
  <path d="M18 39V25h8.5c4 0 7 2.6 7 6.5s-3 7.5-7 7.5H24v5h-6zm6-10v4h1.9c1.8 0 2.7-1 2.7-2s-.9-2-2.7-2H24z" fill="#fff" />
  <path d="M38 25h6l7 14h-6.4l-0.9-2H38.3l-.9 2h-6.4l7-14zm1.9 8h3.2l-1.6-3.7-1.6 3.7z" fill="#fff" />
</svg>
