<svg width="32" height="32" viewBox="0 0 32 32" fill="none" xmlns="http://www.w3.org/2000/svg">
<path d="M17.6317 15.9814H18.0966L32 21.3634V16.7981L28.7964 15.1417V11.7964C28.7964 11.3792 28.457 11.0412 28.0371 11.0412C27.6187 11.0412 27.2806 11.3792 27.2806 11.7964V14.3619L23.1965 12.2531V8.78373C23.1965 8.36794 22.8556 8.03265 22.4386 8.03265C22.0215 8.03265 21.6821 8.36794 21.6821 8.78373V11.472L18.0941 9.62076H17.9018L18.1527 3.80259C18.1499 2.39852 17.0144 1.26025 15.609 1.26025C14.2049 1.26025 13.0652 2.39713 13.0652 3.80259L13.3161 9.62076H13.0094L10.359 11.082V8.78373C10.359 8.36794 10.0195 8.03265 9.60105 8.03265C9.1826 8.03265 8.84718 8.36794 8.84718 8.78373V11.9205L5.51693 13.7554V11.2771C5.51693 10.8599 5.17606 10.5206 4.76041 10.5206C4.34197 10.5206 4.00389 10.86 4.00389 11.2771V14.5898L0 16.7981V21.3648L13.0078 15.9828H13.5858L13.9621 24.7728C13.9621 25.2772 13.9962 25.7475 14.1025 26.1456L9.86559 28.4795L9.32436 30.7383L14.7513 29.8004H16.6584L22.4193 30.7383L21.8781 28.4795L17.1382 26.0351C17.2228 25.6602 17.2554 25.2308 17.2554 24.7714L17.6317 15.9814Z" fill="#B2B7C6"/>
</svg>
