<svg width="32" height="32" viewBox="0 0 32 32" fill="none" xmlns="http://www.w3.org/2000/svg">
<g clip-path="url(#clip0_482_19165)">
<path d="M27.2 24V20.8H25.6L24 8.00002H20.8L19.2 20.8H17.6V24H14.4V20.8H12.8L11.2 8.00002H8.00002L6.39997 20.8H4.8V24H0V32H32V24H27.2Z" fill="#B2B7C6"/>
<path d="M15.9996 0C13.2796 0 11.1997 2.07997 11.1997 4.8H14.3997C17.1197 4.8 19.1997 2.72002 19.1997 0H15.9996Z" fill="#B2B7C6"/>
<path d="M28.8 0C26.08 0 24 2.07997 24 4.8H27.2C29.92 4.8 32 2.72002 32 0H28.8Z" fill="#B2B7C6"/>
</g>
<defs>
<clipPath id="clip0_482_19165">
<rect width="32" height="32" fill="white"/>
</clipPath>
</defs>
</svg>
