<svg width="32" height="32" viewBox="0 0 32 32" fill="none" xmlns="http://www.w3.org/2000/svg">
<path d="M22.8353 28.3386V0H9.1665V28.3386H4.69824V32H27.3035V28.3386H22.8353ZM21.2242 13.0089V17.0864H17.1493V13.0089H21.2242ZM17.1799 10.0599V5.98359H21.2561V10.0599H17.1799ZM21.2242 19.9741V24.0479H17.1493V19.9741H21.2242ZM10.8095 1.6443H21.3877V3.74567H10.8095V1.6443ZM10.775 17.0864V13.0089H14.85V17.0864H10.775ZM14.8513 19.9741V24.0479H10.775V19.9741H14.8513ZM10.8095 5.98359H14.882V10.0599H10.8095V5.98359ZM12.321 26.2168H19.8098V26.2182V28.3386H12.321V26.2168Z" fill="#B2B7C6"/>
</svg>
